<mxfile host="app.diagrams.net" agent="Mozilla/5.0 (Macintosh; Intel Mac OS X 10_15_7) AppleWebKit/537.36 (KHTML, like Gecko) Chrome/127.0.0.0 Safari/537.36" version="24.7.6">
  <diagram name="ページ1" id="AO5uMUR4XVYlhQ5Ew7DM">
    <mxGraphModel dx="819" dy="449" grid="1" gridSize="10" guides="1" tooltips="1" connect="1" arrows="1" fold="1" page="1" pageScale="1" pageWidth="827" pageHeight="1169" math="0" shadow="0">
      <root>
        <mxCell id="0" />
        <mxCell id="1" parent="0" />
        <mxCell id="7aHYhEIhnNvvpC8nQ0Xu-10" value="" style="rounded=0;whiteSpace=wrap;html=1;" vertex="1" parent="1">
          <mxGeometry x="40" width="320" height="280" as="geometry" />
        </mxCell>
        <mxCell id="7aHYhEIhnNvvpC8nQ0Xu-3" value="" style="rounded=1;whiteSpace=wrap;html=1;fillColor=#3399FF;strokeColor=none;" vertex="1" parent="1">
          <mxGeometry x="80" y="100" width="160" height="40" as="geometry" />
        </mxCell>
        <mxCell id="7aHYhEIhnNvvpC8nQ0Xu-1" value="Game Start" style="rounded=1;whiteSpace=wrap;html=1;" vertex="1" parent="1">
          <mxGeometry x="160" y="120" width="160" height="40" as="geometry" />
        </mxCell>
        <mxCell id="7aHYhEIhnNvvpC8nQ0Xu-4" value="" style="rounded=0;whiteSpace=wrap;html=1;fillColor=#FF8000;strokeColor=none;" vertex="1" parent="1">
          <mxGeometry x="150" y="30" width="170" height="50" as="geometry" />
        </mxCell>
        <mxCell id="7aHYhEIhnNvvpC8nQ0Xu-5" value="ボタンの位置はここだが、" style="text;html=1;align=center;verticalAlign=middle;whiteSpace=wrap;rounded=0;fontStyle=1;fontColor=#FFFFFF;" vertex="1" parent="1">
          <mxGeometry x="160" y="30" width="150" height="50" as="geometry" />
        </mxCell>
        <mxCell id="7aHYhEIhnNvvpC8nQ0Xu-6" value="" style="rounded=0;whiteSpace=wrap;html=1;fillColor=#FF8000;strokeColor=none;" vertex="1" parent="1">
          <mxGeometry x="80" y="190" width="170" height="50" as="geometry" />
        </mxCell>
        <mxCell id="7aHYhEIhnNvvpC8nQ0Xu-7" value="クリック判定はここ&lt;div&gt;になってしまう&lt;/div&gt;" style="text;html=1;align=center;verticalAlign=middle;whiteSpace=wrap;rounded=0;fontStyle=1;fontColor=#FFFFFF;" vertex="1" parent="1">
          <mxGeometry x="90" y="190" width="150" height="50" as="geometry" />
        </mxCell>
        <mxCell id="7aHYhEIhnNvvpC8nQ0Xu-8" value="" style="endArrow=classic;html=1;rounded=0;exitX=0.5;exitY=1;exitDx=0;exitDy=0;entryX=0.5;entryY=0;entryDx=0;entryDy=0;strokeWidth=2;strokeColor=#FF8000;" edge="1" parent="1" source="7aHYhEIhnNvvpC8nQ0Xu-5" target="7aHYhEIhnNvvpC8nQ0Xu-1">
          <mxGeometry width="50" height="50" relative="1" as="geometry">
            <mxPoint x="390" y="360" as="sourcePoint" />
            <mxPoint x="440" y="310" as="targetPoint" />
            <Array as="points">
              <mxPoint x="235" y="100" />
              <mxPoint x="240" y="100" />
            </Array>
          </mxGeometry>
        </mxCell>
        <mxCell id="7aHYhEIhnNvvpC8nQ0Xu-9" value="" style="endArrow=classic;html=1;rounded=0;exitX=0.5;exitY=0;exitDx=0;exitDy=0;entryX=0.5;entryY=1;entryDx=0;entryDy=0;strokeWidth=2;strokeColor=#FF8000;" edge="1" parent="1" source="7aHYhEIhnNvvpC8nQ0Xu-6" target="7aHYhEIhnNvvpC8nQ0Xu-3">
          <mxGeometry width="50" height="50" relative="1" as="geometry">
            <mxPoint x="245" y="90" as="sourcePoint" />
            <mxPoint x="250" y="130" as="targetPoint" />
            <Array as="points">
              <mxPoint x="165" y="170" />
              <mxPoint x="160" y="170" />
            </Array>
          </mxGeometry>
        </mxCell>
      </root>
    </mxGraphModel>
  </diagram>
</mxfile>
